<svg width="20" height="20" viewBox="0 0 20 20" fill="none" xmlns="http://www.w3.org/2000/svg">
  <path fill-rule="evenodd" clip-rule="evenodd"
    d="M3.30357 5C2.85977 5 2.5 5.35977 2.5 5.80357C2.5 6.24737 2.85977 6.60714 3.30357 6.60714H16.6964C17.1402 6.60714 17.5 6.24737 17.5 5.80357C17.5 5.35977 17.1402 5 16.6964 5H3.30357ZM2.5 10.0893C2.5 9.64549 2.85977 9.28572 3.30357 9.28572H16.6964C17.1402 9.28572 17.5 9.64549 17.5 10.0893C17.5 10.5331 17.1402 10.8929 16.6964 10.8929H3.30357C2.85977 10.8929 2.5 10.5331 2.5 10.0893ZM2.5 14.375C2.5 13.9312 2.85977 13.5714 3.30357 13.5714H16.6964C17.1402 13.5714 17.5 13.9312 17.5 14.375C17.5 14.8188 17.1402 15.1786 16.6964 15.1786H3.30357C2.85977 15.1786 2.5 14.8188 2.5 14.375Z"
    fill="white" />
</svg>