<svg width="1em" height="1em" viewBox="0 0 11 13" fill="none" xmlns="http://www.w3.org/2000/svg">
  <path
    d="M6.89648 13H2.04688C0.926811 13 0.015625 12.0888 0.015625 10.9688V4.08789C0.015625 2.96783 0.926811 2.05664 2.04688 2.05664H6.89648C8.01655 2.05664 8.92773 2.96783 8.92773 4.08789V10.9688C8.92773 12.0888 8.01655 13 6.89648 13ZM2.04688 3.07227C1.48689 3.07227 1.03125 3.52791 1.03125 4.08789V10.9688C1.03125 11.5287 1.48689 11.9844 2.04688 11.9844H6.89648C7.45647 11.9844 7.91211 11.5287 7.91211 10.9688V4.08789C7.91211 3.52791 7.45647 3.07227 6.89648 3.07227H2.04688ZM10.959 9.69922V2.03125C10.959 0.911186 10.0478 0 8.92773 0H3.29102C3.01053 0 2.7832 0.227325 2.7832 0.507812C2.7832 0.7883 3.01053 1.01562 3.29102 1.01562H8.92773C9.48772 1.01562 9.94336 1.47127 9.94336 2.03125V9.69922C9.94336 9.97971 10.1707 10.207 10.4512 10.207C10.7317 10.207 10.959 9.97971 10.959 9.69922Z"
    fill="#464C5C" />
</svg>