<svg width="20" height="20" viewBox="0 0 20 20" fill="none" xmlns="http://www.w3.org/2000/svg">
  <path
    d="M15.5022 5.50119C15.7788 5.22457 15.7788 4.77608 15.5022 4.49946C15.2255 4.22284 14.7771 4.22284 14.5004 4.49946L10.0013 8.99859L5.50217 4.49946C5.22555 4.22284 4.77706 4.22284 4.50043 4.49946C4.22381 4.77608 4.22381 5.22457 4.50043 5.50119L8.99957 10.0003L4.50043 14.4995C4.22381 14.7761 4.22381 15.2246 4.50043 15.5012C4.77706 15.7778 5.22555 15.7778 5.50217 15.5012L10.0013 11.0021L14.5004 15.5012C14.7771 15.7778 15.2255 15.7778 15.5022 15.5012C15.7788 15.2246 15.7788 14.7761 15.5022 14.4995L11.003 10.0003L15.5022 5.50119Z"
    fill="white" />
</svg>